<mxfile host="app.diagrams.net" modified="2022-12-10T21:39:14.891Z" agent="5.0 (Macintosh)" etag="Nw-qLZLdj7Td3TmirByO" version="20.4.0" type="github">
  <diagram id="h3xm6yNpgrDdIIvT9K9U" name="Page-1">
    <mxGraphModel dx="1409" dy="740" grid="1" gridSize="10" guides="1" tooltips="1" connect="1" arrows="1" fold="1" page="1" pageScale="1" pageWidth="850" pageHeight="1100" math="0" shadow="0">
      <root>
        <mxCell id="0" />
        <mxCell id="1" parent="0" />
        <mxCell id="jkcjHvrFBJTGRPcvBFBw-1" value="Hello, BeyondMD! :)" style="rounded=0;whiteSpace=wrap;html=1;" vertex="1" parent="1">
          <mxGeometry x="20" y="20" width="810" height="60" as="geometry" />
        </mxCell>
        <mxCell id="jkcjHvrFBJTGRPcvBFBw-2" value="Resume " style="rounded=0;whiteSpace=wrap;html=1;" vertex="1" parent="1">
          <mxGeometry x="20" y="120" width="120" height="20" as="geometry" />
        </mxCell>
        <mxCell id="jkcjHvrFBJTGRPcvBFBw-3" value="In here would be the Resume and/or PDF page and certifications. Maybe Downloaded " style="rounded=0;whiteSpace=wrap;html=1;" vertex="1" parent="1">
          <mxGeometry x="20" y="160" width="820" height="400" as="geometry" />
        </mxCell>
        <mxCell id="jkcjHvrFBJTGRPcvBFBw-4" value="" style="rounded=1;whiteSpace=wrap;html=1;align=left;" vertex="1" parent="1">
          <mxGeometry x="15" y="620" width="395" height="220" as="geometry" />
        </mxCell>
        <mxCell id="jkcjHvrFBJTGRPcvBFBw-5" value="API Displayed" style="rounded=0;whiteSpace=wrap;html=1;" vertex="1" parent="1">
          <mxGeometry x="20" y="580" width="110" height="20" as="geometry" />
        </mxCell>
        <mxCell id="jkcjHvrFBJTGRPcvBFBw-6" value="Coin " style="text;html=1;strokeColor=none;fillColor=none;align=center;verticalAlign=middle;whiteSpace=wrap;rounded=0;" vertex="1" parent="1">
          <mxGeometry x="40" y="640" width="60" height="30" as="geometry" />
        </mxCell>
        <mxCell id="jkcjHvrFBJTGRPcvBFBw-7" value="Coin " style="text;html=1;strokeColor=none;fillColor=none;align=center;verticalAlign=middle;whiteSpace=wrap;rounded=0;" vertex="1" parent="1">
          <mxGeometry x="40" y="680" width="60" height="30" as="geometry" />
        </mxCell>
        <mxCell id="jkcjHvrFBJTGRPcvBFBw-8" value="Coin " style="text;html=1;strokeColor=none;fillColor=none;align=center;verticalAlign=middle;whiteSpace=wrap;rounded=0;" vertex="1" parent="1">
          <mxGeometry x="40" y="715" width="60" height="30" as="geometry" />
        </mxCell>
        <mxCell id="jkcjHvrFBJTGRPcvBFBw-9" value="Coin " style="text;html=1;strokeColor=none;fillColor=none;align=center;verticalAlign=middle;whiteSpace=wrap;rounded=0;" vertex="1" parent="1">
          <mxGeometry x="40" y="750" width="60" height="30" as="geometry" />
        </mxCell>
        <mxCell id="jkcjHvrFBJTGRPcvBFBw-10" value="Price" style="text;html=1;strokeColor=none;fillColor=none;align=center;verticalAlign=middle;whiteSpace=wrap;rounded=0;" vertex="1" parent="1">
          <mxGeometry x="280" y="680" width="60" height="30" as="geometry" />
        </mxCell>
        <mxCell id="jkcjHvrFBJTGRPcvBFBw-11" value="Price" style="text;html=1;strokeColor=none;fillColor=none;align=center;verticalAlign=middle;whiteSpace=wrap;rounded=0;" vertex="1" parent="1">
          <mxGeometry x="280" y="715" width="60" height="30" as="geometry" />
        </mxCell>
        <mxCell id="jkcjHvrFBJTGRPcvBFBw-12" value="Price" style="text;html=1;strokeColor=none;fillColor=none;align=center;verticalAlign=middle;whiteSpace=wrap;rounded=0;" vertex="1" parent="1">
          <mxGeometry x="280" y="640" width="60" height="30" as="geometry" />
        </mxCell>
        <mxCell id="jkcjHvrFBJTGRPcvBFBw-13" value="Price" style="text;html=1;strokeColor=none;fillColor=none;align=center;verticalAlign=middle;whiteSpace=wrap;rounded=0;" vertex="1" parent="1">
          <mxGeometry x="280" y="750" width="60" height="30" as="geometry" />
        </mxCell>
        <mxCell id="jkcjHvrFBJTGRPcvBFBw-15" value="" style="rounded=1;whiteSpace=wrap;html=1;" vertex="1" parent="1">
          <mxGeometry x="460" y="620" width="360" height="220" as="geometry" />
        </mxCell>
        <mxCell id="jkcjHvrFBJTGRPcvBFBw-16" value="URLs to LinkedIn/Github" style="rounded=0;whiteSpace=wrap;html=1;" vertex="1" parent="1">
          <mxGeometry x="460" y="570" width="130" height="40" as="geometry" />
        </mxCell>
        <mxCell id="jkcjHvrFBJTGRPcvBFBw-17" value="Crypto News API " style="rounded=0;whiteSpace=wrap;html=1;" vertex="1" parent="1">
          <mxGeometry x="15" y="870" width="95" height="30" as="geometry" />
        </mxCell>
        <mxCell id="jkcjHvrFBJTGRPcvBFBw-18" value="" style="rounded=1;whiteSpace=wrap;html=1;" vertex="1" parent="1">
          <mxGeometry x="15" y="920" width="395" height="160" as="geometry" />
        </mxCell>
        <mxCell id="jkcjHvrFBJTGRPcvBFBw-22" value="&lt;h1&gt;Heading&lt;/h1&gt;&lt;p&gt;Lorem ipsum dolor sit amet, consectetur adipisicing elit, sed do eiusmod tempor incididunt ut labore et dolore magna aliqua.&lt;/p&gt;" style="text;html=1;strokeColor=none;fillColor=none;spacing=5;spacingTop=-20;whiteSpace=wrap;overflow=hidden;rounded=0;" vertex="1" parent="1">
          <mxGeometry x="40" y="940" width="330" height="120" as="geometry" />
        </mxCell>
        <mxCell id="jkcjHvrFBJTGRPcvBFBw-23" value="LinkedIn" style="text;html=1;strokeColor=none;fillColor=none;align=center;verticalAlign=middle;whiteSpace=wrap;rounded=0;" vertex="1" parent="1">
          <mxGeometry x="490" y="660" width="60" height="30" as="geometry" />
        </mxCell>
        <mxCell id="jkcjHvrFBJTGRPcvBFBw-24" value="Github" style="text;html=1;strokeColor=none;fillColor=none;align=center;verticalAlign=middle;whiteSpace=wrap;rounded=0;" vertex="1" parent="1">
          <mxGeometry x="490" y="710" width="60" height="30" as="geometry" />
        </mxCell>
        <mxCell id="jkcjHvrFBJTGRPcvBFBw-25" value="Twitter" style="text;html=1;strokeColor=none;fillColor=none;align=center;verticalAlign=middle;whiteSpace=wrap;rounded=0;" vertex="1" parent="1">
          <mxGeometry x="490" y="770" width="60" height="30" as="geometry" />
        </mxCell>
      </root>
    </mxGraphModel>
  </diagram>
</mxfile>
